<svg width="990" height="631" viewBox="0 0 990 631" fill="none" xmlns="http://www.w3.org/2000/svg">
<path fill-rule="evenodd" clip-rule="evenodd" d="M333.305 176.618L329.664 180.303V185.483V226.193L342.276 213.58V185.483L480.193 45.9163L489.059 36.9442L497.925 45.9163L635.842 185.483V213.581L648.455 226.194V185.483V180.303L644.813 176.618L498.031 28.0788L489.059 19L480.088 28.0788L333.305 176.618ZM648.455 404.716L635.842 417.329V445.427L497.925 584.994L489.059 593.966L480.193 584.994L342.276 445.427V417.329L329.664 404.717V445.427V450.607L333.305 454.292L480.088 602.831L489.059 611.91L498.031 602.831L644.813 454.292L648.455 450.607V445.427V404.716Z" fill="#F8F9F3"/>
<path fill-rule="evenodd" clip-rule="evenodd" d="M333.305 176.618L329.664 180.303V185.483V226.193L342.276 213.58V185.483L480.193 45.9163L489.059 36.9442L497.925 45.9163L635.842 185.483V213.581L648.455 226.194V185.483V180.303L644.813 176.618L498.031 28.0788L489.059 19L480.088 28.0788L333.305 176.618ZM648.455 404.716L635.842 417.329V445.427L497.925 584.994L489.059 593.966L480.193 584.994L342.276 445.427V417.329L329.664 404.717V445.427V450.607L333.305 454.292L480.088 602.831L489.059 611.91L498.031 602.831L644.813 454.292L648.455 450.607V445.427V404.716Z" fill="url(#paint0_linear_2_79)"/>
<path fill-rule="evenodd" clip-rule="evenodd" d="M330.625 314.558L398.014 247.168L465.403 314.558L398.014 381.947L330.625 314.558ZM347.324 314.558L398.014 365.248L448.704 314.558L398.014 263.867L347.324 314.558Z" fill="white"/>
<path d="M41.8079 377.533H30V251.582L42.4244 251.582L94.9658 363.67L147.945 251.582L160.379 251.582V377.533H148.571V277.889L101.474 377.533H88.4232L41.8079 278.087V377.533Z" fill="white"/>
<path d="M317.326 251.582H305.518V276.688L234.671 347.536V377.533H246.479V352.427L317.326 281.579V251.582Z" fill="white"/>
<path d="M305.518 377.533H317.326V347.536L288.045 318.255L279.696 326.604L305.518 352.427V377.533Z" fill="white"/>
<path d="M191.375 251.582V377.533H203.183V251.582H191.375Z" fill="white"/>
<path d="M234.671 281.579V251.582H246.479V276.688L272.301 302.511L263.952 310.86L234.671 281.579Z" fill="white"/>
<path fill-rule="evenodd" clip-rule="evenodd" d="M907.426 251.582H919.827L960.244 377.533H947.843L935.844 340.141H891.409L879.41 377.533H867.009L907.426 251.582ZM895.198 328.333H932.055L913.627 270.904L895.198 328.333Z" fill="white"/>
<path d="M836.875 251.582H848.683V377.533H836.875V251.582Z" fill="white"/>
<path d="M794.071 377.533H805.879V251.582L793.445 251.582L740.466 363.67L687.924 251.582L675.5 251.582V377.533H687.308V278.087L733.923 377.533H746.974L794.071 277.889V377.533Z" fill="white"/>
<path d="M486.573 251.582V379.501H543.645V367.693H498.381V251.582H486.573Z" fill="white"/>
<path d="M561.357 336.205V251.582H573.165V336.205C573.165 353.596 587.262 367.693 604.653 367.693C622.043 367.693 636.14 353.596 636.14 336.205V251.582H647.948V336.205C647.948 360.117 628.564 379.501 604.653 379.501C580.741 379.501 561.357 360.117 561.357 336.205Z" fill="white"/>
<defs>
<linearGradient id="paint0_linear_2_79" x1="329.664" y1="19" x2="648.663" y2="19" gradientUnits="userSpaceOnUse">
<stop stop-color="#13ACEA"/>
<stop offset="0.28125" stop-color="#7EFA75"/>
<stop offset="0.510417" stop-color="#FADD2F"/>
<stop offset="0.755066" stop-color="#FE9C2E"/>
<stop offset="1" stop-color="#F65C57"/>
</linearGradient>
</defs>
</svg>
